<svg width="82" height="82" viewBox="0 0 82 82" fill="none" xmlns="http://www.w3.org/2000/svg">
<g filter="url(#filter0_d_25_131)">
<rect x="10" y="6" width="62" height="62" rx="10" fill="#C96408"/>
<path fill-rule="evenodd" clip-rule="evenodd" d="M58.8668 17.625C58.9039 17.625 58.9411 17.625 58.9785 17.625H62.3125C63.3826 17.625 64.25 18.4925 64.25 19.5625C64.25 20.6326 63.3826 21.5 62.3125 21.5H58.9785C57.4091 21.5 56.408 21.5034 55.6591 21.5954C54.9631 21.6808 54.7189 21.8199 54.5734 21.9392C54.4279 22.0584 54.2436 22.2706 54.0233 22.9363C53.7863 23.6527 53.5867 24.6336 53.2789 26.1726L52.5874 29.63C52.3775 30.6793 51.3568 31.3597 50.3075 31.1499C49.2583 30.94 48.5778 29.9193 48.7876 28.87L49.4791 25.4126C49.4864 25.376 49.4937 25.3395 49.501 25.3031C49.7804 23.9056 50.0238 22.6882 50.3445 21.719C50.6903 20.674 51.1908 19.7015 52.1167 18.9425C53.0425 18.1834 54.0944 17.8834 55.1869 17.7492C56.2001 17.6248 57.4417 17.6249 58.8668 17.625Z" fill="white"/>
<path d="M24.8593 32.4234C25.1636 29.0759 25.3157 27.4022 26.4257 26.3886C27.5356 25.375 29.2162 25.375 32.5774 25.375H53.3642C55.6941 25.375 56.859 25.375 57.4406 26.1364C58.0222 26.8979 57.7157 28.0218 57.1026 30.2696L54.1825 40.9767C53.4335 43.7232 53.0589 45.0965 52.0174 45.892C50.9759 46.6875 49.5525 46.6875 46.7056 46.6875H32.049C28.0809 46.6875 26.0968 46.6875 24.9444 45.4256C23.792 44.1636 23.9716 42.1877 24.3308 38.2358L24.8593 32.4234Z" fill="white"/>
<path d="M50.6875 52.5C50.6875 54.6401 48.9526 56.375 46.8125 56.375C44.6724 56.375 42.9375 54.6401 42.9375 52.5C42.9375 50.3599 44.6724 48.625 46.8125 48.625C48.9526 48.625 50.6875 50.3599 50.6875 52.5Z" fill="white"/>
<path d="M29.375 52.5C29.375 54.6401 27.6401 56.375 25.5 56.375C23.3599 56.375 21.625 54.6401 21.625 52.5C21.625 50.3599 23.3599 48.625 25.5 48.625C27.6401 48.625 29.375 50.3599 29.375 52.5Z" fill="white"/>
<path d="M56.5 52.5C56.5 54.6401 54.7651 56.375 52.625 56.375C50.4849 56.375 48.75 54.6401 48.75 52.5C48.75 50.3599 50.4849 48.625 52.625 48.625C54.7651 48.625 56.5 50.3599 56.5 52.5Z" fill="white"/>
<path fill-rule="evenodd" clip-rule="evenodd" d="M58.4375 52.5C58.4375 55.7102 55.8352 58.3125 52.625 58.3125C49.4148 58.3125 46.8125 55.7102 46.8125 52.5C46.8125 49.2898 49.4148 46.6875 52.625 46.6875C55.8352 46.6875 58.4375 49.2898 58.4375 52.5ZM52.625 56.375C54.7651 56.375 56.5 54.6401 56.5 52.5C56.5 50.3599 54.7651 48.625 52.625 48.625C50.4849 48.625 48.75 50.3599 48.75 52.5C48.75 54.6401 50.4849 56.375 52.625 56.375Z" fill="#C96408"/>
<path d="M35.1875 52.5C35.1875 54.6401 33.4526 56.375 31.3125 56.375C29.1724 56.375 27.4375 54.6401 27.4375 52.5C27.4375 50.3599 29.1724 48.625 31.3125 48.625C33.4526 48.625 35.1875 50.3599 35.1875 52.5Z" fill="white"/>
<path fill-rule="evenodd" clip-rule="evenodd" d="M37.125 52.5C37.125 55.7102 34.5227 58.3125 31.3125 58.3125C28.1023 58.3125 25.5 55.7102 25.5 52.5C25.5 49.2898 28.1023 46.6875 31.3125 46.6875C34.5227 46.6875 37.125 49.2898 37.125 52.5ZM31.3125 56.375C33.4526 56.375 35.1875 54.6401 35.1875 52.5C35.1875 50.3599 33.4526 48.625 31.3125 48.625C29.1724 48.625 27.4375 50.3599 27.4375 52.5C27.4375 54.6401 29.1724 56.375 31.3125 56.375Z" fill="#C96408"/>
</g>
<defs>
<filter id="filter0_d_25_131" x="0" y="0" width="82" height="82" filterUnits="userSpaceOnUse" color-interpolation-filters="sRGB">
<feFlood flood-opacity="0" result="BackgroundImageFix"/>
<feColorMatrix in="SourceAlpha" type="matrix" values="0 0 0 0 0 0 0 0 0 0 0 0 0 0 0 0 0 0 127 0" result="hardAlpha"/>
<feOffset dy="4"/>
<feGaussianBlur stdDeviation="5"/>
<feComposite in2="hardAlpha" operator="out"/>
<feColorMatrix type="matrix" values="0 0 0 0 0 0 0 0 0 0 0 0 0 0 0 0 0 0 0.25 0"/>
<feBlend mode="normal" in2="BackgroundImageFix" result="effect1_dropShadow_25_131"/>
<feBlend mode="normal" in="SourceGraphic" in2="effect1_dropShadow_25_131" result="shape"/>
</filter>
</defs>
</svg>
