<svg width="83" height="82" viewBox="0 0 83 82" fill="none" xmlns="http://www.w3.org/2000/svg">
<g filter="url(#filter0_d_20_118)">
<rect x="6" y="6" width="63" height="62" rx="10" fill="#7937BB"/>
<path fill-rule="evenodd" clip-rule="evenodd" d="M49.8891 43.38C50.658 42.6233 51.9045 42.6233 52.6734 43.38L59.564 50.1612C60.3328 50.9179 60.3328 52.1446 59.564 52.9013C58.7951 53.6579 57.5486 53.6579 56.7798 52.9013L49.8891 46.12C49.1203 45.3634 49.1203 44.1366 49.8891 43.38Z" fill="white"/>
<path d="M55.2188 36.0312C55.2188 42.9866 49.4894 48.625 42.4219 48.625C35.3544 48.625 29.625 42.9866 29.625 36.0312C29.625 29.0759 35.3544 23.4375 42.4219 23.4375C49.4894 23.4375 55.2188 29.0759 55.2188 36.0312Z" fill="white"/>
<path fill-rule="evenodd" clip-rule="evenodd" d="M13.875 25.375C13.875 24.3049 14.7564 23.4375 15.8438 23.4375H27.6562C28.7436 23.4375 29.625 24.3049 29.625 25.375C29.625 26.4451 28.7436 27.3125 27.6562 27.3125H15.8438C14.7564 27.3125 13.875 26.4451 13.875 25.375Z" fill="white"/>
<path fill-rule="evenodd" clip-rule="evenodd" d="M13.875 33.125C13.875 32.0549 14.7564 31.1875 15.8438 31.1875H23.7188C24.8061 31.1875 25.6875 32.0549 25.6875 33.125C25.6875 34.1951 24.8061 35.0625 23.7188 35.0625H15.8438C14.7564 35.0625 13.875 34.1951 13.875 33.125Z" fill="white"/>
<path fill-rule="evenodd" clip-rule="evenodd" d="M13.875 40.875C13.875 39.8049 14.7564 38.9375 15.8438 38.9375H23.7188C24.8061 38.9375 25.6875 39.8049 25.6875 40.875C25.6875 41.9451 24.8061 42.8125 23.7188 42.8125H15.8438C14.7564 42.8125 13.875 41.9451 13.875 40.875Z" fill="white"/>
</g>
<defs>
<filter id="filter0_d_20_118" x="0" y="0" width="83" height="82" filterUnits="userSpaceOnUse" color-interpolation-filters="sRGB">
<feFlood flood-opacity="0" result="BackgroundImageFix"/>
<feColorMatrix in="SourceAlpha" type="matrix" values="0 0 0 0 0 0 0 0 0 0 0 0 0 0 0 0 0 0 127 0" result="hardAlpha"/>
<feOffset dx="4" dy="4"/>
<feGaussianBlur stdDeviation="5"/>
<feComposite in2="hardAlpha" operator="out"/>
<feColorMatrix type="matrix" values="0 0 0 0 0 0 0 0 0 0 0 0 0 0 0 0 0 0 0.25 0"/>
<feBlend mode="normal" in2="BackgroundImageFix" result="effect1_dropShadow_20_118"/>
<feBlend mode="normal" in="SourceGraphic" in2="effect1_dropShadow_20_118" result="shape"/>
</filter>
</defs>
</svg>
