<svg width="91" height="90" viewBox="0 0 91 90" fill="none" xmlns="http://www.w3.org/2000/svg">
<path d="M21.8097 57.698C23.7049 62.5385 27.5053 67.0141 32.5253 68.59C37.3208 70.0954 42.1661 65.9612 47.2438 65.6824C51.8903 65.4272 56.3918 68.66 60.7876 67.0382C65.4332 65.3241 69.7065 61.5114 71.1861 56.8486C72.6339 52.2861 68.8975 47.9831 68.3217 43.2957C67.7535 38.6711 70.8038 33.1333 67.8356 29.5765C64.8697 26.0223 58.7815 28.0711 54.3493 26.5522C49.6186 24.931 46.1051 20.0052 41.0533 20.3983C35.8518 20.803 31.3525 24.61 27.9578 28.6058C24.631 32.5218 23.3471 37.5169 22.2998 42.4729C21.222 47.5728 19.9378 52.9171 21.8097 57.698Z" fill="url(#paint0_angular_25_141)"/>
<g style="mix-blend-mode:hard-light" opacity="0.6">
<path d="M28.6973 53.9822C30.0379 57.4062 32.7262 60.5721 36.2772 61.6868C39.6695 62.7517 43.0969 59.8273 46.6887 59.6301C49.9755 59.4496 53.1598 61.7364 56.2692 60.5891C59.5554 59.3767 62.5782 56.6796 63.6249 53.3813C64.649 50.1539 62.006 47.1101 61.5986 43.7944C61.1967 40.523 63.3544 36.6058 61.2548 34.0897C59.1568 31.5756 54.8502 33.0249 51.7149 31.9505C48.3686 30.8037 45.8832 27.3193 42.3097 27.5973C38.6303 27.8836 35.4476 30.5766 33.0463 33.4031C30.693 36.1732 29.7848 39.7066 29.044 43.2123C28.2816 46.8198 27.3732 50.6003 28.6973 53.9822Z" fill="url(#paint1_angular_25_141)"/>
</g>
<defs>
<radialGradient id="paint0_angular_25_141" cx="0" cy="0" r="1" gradientUnits="userSpaceOnUse" gradientTransform="translate(45.347 45) rotate(-13.4453) scale(25.8608 25.0749)">
<stop offset="0.121847" stop-color="white" stop-opacity="0"/>
<stop offset="0.217907" stop-color="white"/>
<stop offset="0.321282" stop-color="white" stop-opacity="0"/>
<stop offset="0.433259" stop-color="white"/>
<stop offset="0.509566" stop-color="white" stop-opacity="0"/>
<stop offset="0.577558" stop-color="white"/>
<stop offset="0.667379" stop-color="white" stop-opacity="0"/>
<stop offset="0.766797" stop-color="white"/>
<stop offset="0.873934" stop-color="white" stop-opacity="0"/>
<stop offset="1" stop-color="white"/>
</radialGradient>
<radialGradient id="paint1_angular_25_141" cx="0" cy="0" r="1" gradientUnits="userSpaceOnUse" gradientTransform="translate(45.3469 44.9999) rotate(-13.4453) scale(18.2933 17.7373)">
<stop offset="0.121847" stop-color="white" stop-opacity="0"/>
<stop offset="0.217907" stop-color="white"/>
<stop offset="0.321282" stop-color="white" stop-opacity="0"/>
<stop offset="0.433259" stop-color="white"/>
<stop offset="0.509566" stop-color="white" stop-opacity="0"/>
<stop offset="0.577558" stop-color="white"/>
<stop offset="0.667379" stop-color="white" stop-opacity="0"/>
<stop offset="0.766797" stop-color="white"/>
<stop offset="0.873934" stop-color="white" stop-opacity="0"/>
<stop offset="1" stop-color="white"/>
</radialGradient>
</defs>
</svg>
